<svg width="98" height="97" viewBox="0 0 98 97" fill="none" xmlns="http://www.w3.org/2000/svg">
<path d="M83.7865 40.4002V83.7103L68.0594 83.6453V75.7707H75.9339L75.9119 47.7123L83.7865 40.4002ZM37.1332 27.3372L37.6234 27.349L38.3064 27.4004L38.4993 27.4279C43.6423 28.1561 47.4473 32.3593 47.6688 37.3727L47.6771 38.031V50.2327L64.122 56.4221V87.57H28.4474L26.1795 85.4557L12.9148 72.8484C12.7025 72.6485 12.4989 72.4397 12.3046 72.2223C10.2571 69.9585 8.77289 66.7534 9.02869 63.7375C9.26124 60.985 10.3596 58.522 12.3737 56.6683L13.1078 56.0519L13.2141 55.9771C15.2181 54.5006 17.4546 53.6581 19.9665 53.7013C21.8739 53.7329 23.7035 54.4643 25.7844 55.8653L26.5772 56.4221V37.7435C26.5693 34.7001 27.912 31.818 30.2428 29.8532C32.1563 28.2311 34.6054 27.3372 37.1332 27.3372ZM36.956 34.3614C35.2259 34.3614 33.8013 35.653 33.5924 37.3227L33.566 37.7475V66.9779L30.2507 68.3835L23.8094 62.5327L23.4314 62.1745L23.3526 62.1193L22.6241 61.4578C22.0926 60.9736 21.4509 60.7373 20.7933 60.6153C20.6241 60.5719 20.4626 60.5522 20.2895 60.5404C20.0807 60.5326 19.8879 60.5247 19.683 60.5483C19.4822 60.5758 19.2973 60.631 19.1042 60.6901C18.4507 60.8711 17.8285 61.1705 17.3365 61.7098C16.0534 63.12 16.0488 65.2446 17.2603 66.6563L17.5884 66.9937L27.6088 76.0927L31.55 79.6954H31.5775L31.6012 79.719L31.6248 79.6954L56.1412 79.5102L56.2199 62.1822L40.3419 56.17V37.7475C40.3419 35.8772 38.8261 34.3614 36.956 34.3614ZM60.1848 12.7741V20.6488L20.8119 20.6486V44.2723L12.9373 50.1782V12.7741H60.1848ZM71.0179 10L89.5507 28.5328L71.0179 47.0656L65.4506 41.4982L74.4708 32.47H52.4851V24.5954H74.4708L65.4506 15.5673L71.0179 10Z" fill="url(#paint0_linear_4442_312)"/>
<defs>
<linearGradient id="paint0_linear_4442_312" x1="59.9607" y1="81.2378" x2="40.0309" y2="9.59916" gradientUnits="userSpaceOnUse">
<stop stop-color="#C800DE"/>
<stop offset="1" stop-color="#53EAFD"/>
</linearGradient>
</defs>
</svg>
