<svg width="98" height="98" viewBox="0 0 98 98" fill="none" xmlns="http://www.w3.org/2000/svg">
<path d="M94.0004 50.8348V86.9764C94.0004 88.8478 94.0004 89.7834 93.5935 90.5223C93.0489 91.5043 92.0072 92.2842 90.6968 92.6908C89.7116 93 88.4641 93 85.969 93C83.4739 93 82.2263 93 81.2411 92.6948C79.9318 92.2864 78.8919 91.5051 78.3498 90.5223C77.9375 89.7834 77.9375 88.8478 77.9375 86.9764V50.8348C77.9375 48.9635 77.9375 48.0278 78.3444 47.289C78.889 46.307 79.9308 45.5271 81.2411 45.1205C82.2263 44.8112 83.4739 44.8112 85.969 44.8112C88.4641 44.8112 89.7116 44.8112 90.6968 45.1164C92.0062 45.5249 93.046 46.3062 93.5881 47.289C94.0004 48.0278 94.0004 48.9635 94.0004 50.8348Z" stroke="url(#paint0_linear_4357_299)" stroke-width="5.73676" stroke-linejoin="round"/>
<path d="M85.9989 20.5C85.9989 20.5 64.5334 42.0779 8.04447 56.0993" stroke="url(#paint1_linear_4357_299)" stroke-width="5.73676" stroke-linecap="round" stroke-linejoin="round"/>
<path d="M57.286 63.7088V86.7233C57.286 88.6733 57.286 89.6483 56.8849 90.4182C56.3481 91.4415 55.3212 92.2541 54.0296 92.6778C53.0585 93 51.8287 93 49.3693 93C46.9098 93 45.6801 93 44.709 92.682C43.4183 92.2564 42.3934 91.4422 41.8589 90.4182C41.4525 89.6483 41.4525 88.6733 41.4525 86.7233V63.7088C41.4525 61.7588 41.4525 60.7838 41.8537 60.0139C42.3905 58.9906 43.4173 58.178 44.709 57.7543C45.6801 57.4321 46.9098 57.4321 49.3693 57.4321C51.8287 57.4321 53.0585 57.4321 54.0296 57.7501C55.3202 58.1757 56.3452 58.9899 56.8796 60.0139C57.286 60.7838 57.286 61.7588 57.286 63.7088ZM20.3413 74.1699V86.7233C20.3413 88.6733 20.3413 89.6483 19.9402 90.4182C19.4034 91.4415 18.3765 92.2541 17.0849 92.6778C16.1137 93 14.884 93 12.4245 93C9.96508 93 8.73535 93 7.76423 92.682C6.47359 92.2564 5.44862 91.4422 4.9142 90.4182C4.50781 89.6483 4.50781 88.6733 4.50781 86.7233V74.1699C4.50781 72.22 4.50781 71.245 4.90893 70.4751C5.44573 69.4518 6.4726 68.6392 7.76423 68.2154C8.73535 67.8932 9.96508 67.8932 12.4245 67.8932C14.884 67.8932 16.1137 67.8932 17.0849 68.2113C18.3755 68.6369 19.4005 69.451 19.9349 70.4751C20.3413 71.245 20.3413 72.22 20.3413 74.1699Z" stroke="url(#paint2_linear_4357_299)" stroke-width="5.73676" stroke-linejoin="round"/>
<path d="M74.6406 14.9801L90.3682 16.2165L89.1318 31.9441" stroke="url(#paint3_linear_4357_299)" stroke-width="5.73676" stroke-linecap="round" stroke-linejoin="round"/>
<defs>
<linearGradient id="paint0_linear_4357_299" x1="80.9091" y1="51.1391" x2="103.098" y2="61.4941" gradientUnits="userSpaceOnUse">
<stop stop-color="#C800DE"/>
<stop offset="1" stop-color="#53EAFD"/>
</linearGradient>
<linearGradient id="paint1_linear_4357_299" x1="8" y1="55.5" x2="86.18" y2="58.9728" gradientUnits="userSpaceOnUse">
<stop stop-color="#C800DE"/>
<stop offset="1" stop-color="#53EAFD"/>
</linearGradient>
<linearGradient id="paint2_linear_4357_299" x1="14.2718" y1="62.1026" x2="30.9732" y2="96.7996" gradientUnits="userSpaceOnUse">
<stop stop-color="#C800DE"/>
<stop offset="1" stop-color="#53EAFD"/>
</linearGradient>
<linearGradient id="paint3_linear_4357_299" x1="76.5" y1="16" x2="89.0597" y2="30.4481" gradientUnits="userSpaceOnUse">
<stop stop-color="#53EAFD"/>
<stop offset="1" stop-color="#53EAFD"/>
</linearGradient>
</defs>
</svg>
