<svg width="98" height="98" viewBox="0 0 98 98" fill="none" xmlns="http://www.w3.org/2000/svg">
<path d="M16.6211 40C16.6211 38.3448 17.762 37 19.1661 37H42.0761C42.7511 37 43.3984 37.3161 43.8757 37.8787C44.353 38.4413 44.6211 39.2043 44.6211 40C44.6211 40.7956 44.353 41.5587 43.8757 42.1213C43.3984 42.6839 42.7511 43 42.0761 43H19.1661C18.8315 43.0015 18.5 42.9249 18.1907 42.7747C17.8813 42.6245 17.6002 42.4036 17.3637 42.1247C17.1271 41.8458 16.9397 41.5145 16.8122 41.1498C16.6848 40.7852 16.6198 40.3944 16.6211 40Z" fill="url(#paint0_linear_4357_319)"/>
<path d="M82.5 22H23C13.0589 22 5 30.0589 5 40C5 49.9411 13.0589 58 23 58H42" stroke="url(#paint1_linear_4357_319)" stroke-width="6" stroke-linecap="round"/>
<path d="M71.6262 47.2978C71.7202 47.0191 71.8683 46.7617 72.0621 46.5405C72.2559 46.3194 72.4916 46.1387 72.7555 46.009C73.0194 45.8793 73.3064 45.8031 73.5999 45.7848C73.8934 45.7664 74.1877 45.8064 74.4657 45.9023C77.7342 47.0164 80.4863 49.2808 82.209 52.2736C82.3664 52.5284 82.4711 52.8122 82.5168 53.1082C82.5625 53.4042 82.5483 53.7064 82.4751 53.9968C82.4019 54.2872 82.2711 54.56 82.0906 54.7989C81.91 55.0379 81.6833 55.2381 81.4239 55.3879C81.1645 55.5376 80.8777 55.6337 80.5805 55.6706C80.2832 55.7074 79.9816 55.6843 79.6935 55.6024C79.4054 55.5205 79.1367 55.3817 78.9032 55.1941C78.6698 55.0064 78.4764 54.7739 78.3344 54.5101C77.1521 52.4567 75.2641 50.9027 73.0218 50.1372C72.7431 50.0433 72.4857 49.8951 72.2645 49.7013C72.0434 49.5075 71.8627 49.2719 71.733 49.0079C71.6033 48.744 71.5271 48.457 71.5087 48.1635C71.4904 47.87 71.5304 47.5758 71.6262 47.2978Z" fill="#F5F5F5"/>
<path d="M71.6262 47.2978C71.7202 47.0191 71.8683 46.7617 72.0621 46.5405C72.2559 46.3194 72.4916 46.1387 72.7555 46.009C73.0194 45.8793 73.3064 45.8031 73.5999 45.7848C73.8934 45.7664 74.1877 45.8064 74.4657 45.9023C77.7342 47.0164 80.4863 49.2808 82.209 52.2736C82.3664 52.5284 82.4711 52.8122 82.5168 53.1082C82.5625 53.4042 82.5483 53.7064 82.4751 53.9968C82.4019 54.2872 82.2711 54.56 82.0906 54.7989C81.91 55.0379 81.6833 55.2381 81.4239 55.3879C81.1645 55.5376 80.8777 55.6337 80.5805 55.6706C80.2832 55.7074 79.9816 55.6843 79.6935 55.6024C79.4054 55.5205 79.1367 55.3817 78.9032 55.1941C78.6698 55.0064 78.4764 54.7739 78.3344 54.5101C77.1521 52.4567 75.2641 50.9027 73.0218 50.1372C72.7431 50.0433 72.4857 49.8951 72.2645 49.7013C72.0434 49.5075 71.8627 49.2719 71.733 49.0079C71.6033 48.744 71.5271 48.457 71.5087 48.1635C71.4904 47.87 71.5304 47.5758 71.6262 47.2978Z" fill="url(#paint2_linear_4357_319)"/>
<path d="M88.4942 42.4891C84.2746 37.939 78.4264 35.2427 72.2261 34.9888C66.0258 34.7349 59.9767 36.9441 55.3993 41.134C50.8219 45.3239 48.0877 51.1545 47.7936 57.353C47.4994 63.5516 49.6692 69.6148 53.8294 74.2194L40.4067 90.178C40.1147 90.5143 39.8925 90.9053 39.7531 91.3283C39.6137 91.7513 39.5599 92.1978 39.5947 92.6417C39.6296 93.0857 39.7524 93.5183 39.9561 93.9144C40.1598 94.3104 40.4403 94.662 40.7812 94.9485C41.1221 95.2351 41.5166 95.451 41.9418 95.5836C42.3669 95.7162 42.8142 95.7628 43.2576 95.7209C43.701 95.6789 44.1315 95.5491 44.5243 95.3391C44.917 95.1291 45.264 94.843 45.5451 94.4975L58.9324 78.5852C63.7817 81.6364 69.5783 82.8118 75.2331 81.8906C80.888 80.9694 86.0118 78.015 89.642 73.5824C93.2722 69.1498 95.1588 63.5442 94.9474 57.8187C94.7361 52.0932 92.4413 46.642 88.4942 42.4891ZM59.9023 46.5659C61.4972 45.0445 63.3762 43.8521 65.432 43.0569C67.4878 42.2616 69.6801 41.879 71.8838 41.931C74.0874 41.983 76.2592 42.4686 78.2752 43.3599C80.2912 44.2512 82.1119 45.5309 83.6333 47.1259C85.1548 48.7208 86.3471 50.5999 87.1424 52.6556C87.9377 54.7114 88.3202 56.9037 88.2682 59.1074C88.2162 61.311 87.7307 63.4828 86.8394 65.4988C85.948 67.5148 84.6684 69.3355 83.0734 70.8569C79.8522 73.9296 75.5423 75.5968 71.0919 75.4918C66.6415 75.3868 62.415 73.5182 59.3423 70.297C56.2696 67.0758 54.6024 62.7659 54.7074 58.3155C54.8124 53.8651 56.6811 49.6386 59.9023 46.5659Z" fill="url(#paint3_linear_4357_319)"/>
<defs>
<linearGradient id="paint0_linear_4357_319" x1="43.6032" y1="42.6276" x2="35.7233" y2="27.8544" gradientUnits="userSpaceOnUse">
<stop stop-color="#C800DE"/>
<stop offset="1" stop-color="#53EAFD"/>
</linearGradient>
<linearGradient id="paint1_linear_4357_319" x1="54.0306" y1="55.0612" x2="49.3088" y2="19.8745" gradientUnits="userSpaceOnUse">
<stop stop-color="#C800DE"/>
<stop offset="1" stop-color="#53EAFD"/>
</linearGradient>
<linearGradient id="paint2_linear_4357_319" x1="82.532" y1="54.436" x2="71.1997" y2="53.7795" gradientUnits="userSpaceOnUse">
<stop stop-color="#C800DE"/>
<stop offset="1" stop-color="#53EAFD"/>
</linearGradient>
<linearGradient id="paint3_linear_4357_319" x1="59.6915" y1="85.3885" x2="51.9258" y2="31.8016" gradientUnits="userSpaceOnUse">
<stop stop-color="#C800DE"/>
<stop offset="1" stop-color="#53EAFD"/>
</linearGradient>
</defs>
</svg>
