<svg width="32" height="24" viewBox="0 0 32 24" fill="none" xmlns="http://www.w3.org/2000/svg">
<path d="M9.94758 23.0114H1.97754L4.31462 12.0451L1.97754 0.719238H9.94758L12.8538 5.49612L23.1611 6.09324L30.9214 11.4672L23.1611 16.8412L12.8538 18.2345L9.94758 23.0114Z" fill="#000C23"/>
<path d="M2.70021 1.83259L4.55857 6.3619C5.75335 5.96279 6.96958 5.62166 8.20725 5.3385C9.44492 5.05656 10.6998 4.85091 11.9717 4.72153L10.3615 2.32324C10.2427 2.15969 10.1067 2.03642 9.95348 1.95342C9.8003 1.87043 9.62996 1.82954 9.44248 1.83076L2.70021 1.83259ZM4.77179 8.20364L4.77179 15.5267C6.25577 16.0759 7.87884 16.5184 9.64099 16.854C11.4031 17.1896 13.2382 17.3575 15.1462 17.3575C17.9205 17.3575 20.4749 16.9364 22.8094 16.0942C25.1438 15.2521 27.3985 13.8424 29.5737 11.8652C27.3961 9.88795 25.1407 8.47826 22.8075 7.63611C20.4743 6.79396 17.9199 6.37288 15.1444 6.37288C13.2351 6.37288 11.4001 6.5407 9.63915 6.87634C7.87823 7.21198 6.25577 7.65441 4.77179 8.20364ZM15.6792 9.91358C16.2099 9.38388 16.863 9.11902 17.6387 9.11902C18.4144 9.11902 19.0675 9.38388 19.5981 9.91358C20.1287 10.4433 20.3947 11.0938 20.3959 11.8652C20.3971 12.6365 20.1312 13.2871 19.5981 13.8168C19.0675 14.3465 18.4144 14.6113 17.6387 14.6113C16.863 14.6113 16.2099 14.3465 15.6792 13.8168C15.1486 13.2871 14.8827 12.6365 14.8815 11.8652C14.8803 11.0938 15.1462 10.4433 15.6792 9.91358ZM2.70021 21.8996L9.40571 21.8996C9.59443 21.8996 9.77089 21.8581 9.93509 21.7751C10.1005 21.6933 10.2427 21.57 10.3615 21.4053L11.9717 19.0088C10.6998 18.8794 9.32116 18.6439 7.83595 18.3021C6.35074 17.9604 5.24664 17.6492 4.52364 17.3684L2.70021 21.8996ZM32 11.8652C29.7477 14.3928 27.2098 16.245 24.3865 17.4215C21.5631 18.5993 18.4181 19.1882 14.9513 19.1882C14.8104 19.1882 14.6634 19.1943 14.5102 19.2065C14.357 19.2187 14.1977 19.2126 14.0323 19.1882L11.8835 22.3646C11.6176 22.7893 11.2622 23.1231 10.8174 23.366C10.3726 23.6089 9.90201 23.7303 9.40571 23.7303L1.41255e-06 23.7303L2.93366 16.4531L2.93366 7.24249L2.44983e-06 -1.39876e-06L9.44064 -9.86101e-07C9.93571 -9.64461e-07 10.4063 0.115947 10.8523 0.347844C11.2971 0.57852 11.6525 0.906226 11.9184 1.33096L14.069 4.54212L14.9513 4.54212C18.4193 4.54212 21.5643 5.13102 24.3865 6.30881C27.2098 7.48538 29.7477 9.3375 32 11.8652Z" fill="#53EAFD"/>
</svg>
