<svg width="800" height="122" viewBox="0 0 800 122" fill="none" xmlns="http://www.w3.org/2000/svg">
<g clip-path="url(#clip0_704_1940)">
<path d="M45.3335 122C36.281 122 28.3512 120.111 21.5619 116.315C14.7726 112.519 9.48011 107.191 5.6845 100.294C1.88889 93.3978 0 85.2895 0 75.9336C0 66.5778 1.87107 58.4694 5.61322 51.5728C9.35537 44.6762 14.6122 39.3479 21.4193 35.5521C28.2087 31.7563 36.1741 29.8673 45.3335 29.8673C56.5599 29.8673 65.8618 32.6651 73.2392 38.2786C80.6166 43.8921 85.3923 51.7689 87.5663 61.9088H67.3409C65.8618 57.0794 63.2779 53.444 59.5893 50.9848C55.9006 48.5255 51.1427 47.2959 45.3335 47.2959C37.564 47.2959 31.3984 49.8086 26.8722 54.834C22.346 59.8594 20.0829 66.8986 20.0829 75.9514C20.0829 85.0043 22.346 92.0435 26.8722 97.0689C31.3984 102.094 37.5462 104.607 45.3335 104.607C57.54 104.607 65.0243 99.243 67.7685 88.515H87.994C86.0338 99.243 81.3472 107.512 73.9698 113.321C66.5924 119.131 57.041 122.036 45.3335 122.036V122Z" fill="#FAFAFA"/>
<path d="M242.42 121.572C233.457 121.572 225.83 119.683 219.54 115.888C213.231 112.092 208.473 106.763 205.212 99.8668C201.969 92.9702 200.348 84.8618 200.348 75.506C200.348 66.1502 201.951 58.0061 205.141 51.0739C208.331 44.1417 212.964 38.7955 219.023 35.0532C225.081 31.3108 232.281 29.4397 240.656 29.4397C247.552 29.4397 253.451 30.7406 258.369 33.3602C263.287 35.962 267.083 39.6865 269.738 44.4981H270.326V0H290.409V99.5638H300.441V121.982H278.006V105.765H273.426C270.379 110.88 266.263 114.8 261.095 117.509C255.927 120.218 249.708 121.572 242.42 121.572ZM245.806 104.286C253.29 104.286 259.242 102.166 263.679 97.9422C268.098 93.7187 270.326 87.9983 270.326 80.8165V70.1954C270.326 63.0137 268.116 57.2933 263.679 53.0698C259.242 48.8463 253.29 46.7257 245.806 46.7257C237.627 46.7257 231.354 49.2919 226.988 54.4064C222.605 59.5209 220.413 66.56 220.413 75.5238C220.413 84.4876 222.605 91.5267 226.988 96.6413C231.372 101.756 237.644 104.322 245.806 104.322V104.286Z" fill="#FAFAFA"/>
<path d="M358.481 122C349.126 122 340.982 120.111 334.05 116.315C327.118 112.519 321.772 107.138 318.03 100.152C314.288 93.1662 312.417 84.9865 312.417 75.6485C312.417 66.3105 314.252 58.2021 317.959 51.359C321.648 44.5159 326.887 39.2231 333.676 35.4808C340.465 31.7385 348.484 29.8673 357.75 29.8673C367.017 29.8673 374.234 31.6137 380.631 35.1066C387.028 38.5994 391.982 43.5714 395.475 50.0224C398.968 56.4735 400.714 64.1186 400.714 72.9754V80.3531H331.627C332.411 88.4259 335.119 94.6453 339.752 99.0291C344.386 103.413 350.587 105.605 358.356 105.605C364.059 105.605 368.745 104.518 372.38 102.362C376.016 100.205 378.528 96.9441 379.918 92.6137H400.286C398.112 101.863 393.372 109.08 386.03 114.248C378.689 119.416 369.511 122 358.499 122H358.481ZM332.197 66.3283H381.504C380.72 59.8238 378.261 54.834 374.127 51.3412C369.993 47.8483 364.54 46.1019 357.733 46.1019C350.925 46.1019 345.33 47.8483 340.893 51.3412C336.474 54.834 333.551 59.8238 332.179 66.3283H332.197Z" fill="#FAFAFA"/>
<path d="M412.687 122V109.151L462.743 46.8861H415.342V30.7941H487.53V43.6427L437.332 105.908H488.421V122H412.687Z" fill="#FAFAFA"/>
<path d="M757.785 122C748.429 122 740.286 120.111 733.354 116.315C726.422 112.519 721.076 107.138 717.334 100.152C713.592 93.1662 711.721 84.9865 711.721 75.6485C711.721 66.3105 713.556 58.2021 717.263 51.359C720.951 44.5159 726.19 39.2231 732.98 35.4808C739.769 31.7385 747.788 29.8673 757.054 29.8673C766.32 29.8673 773.537 31.6137 779.935 35.1066C786.332 38.5994 791.286 43.5714 794.779 50.0224C798.271 56.4735 800.018 64.1186 800.018 72.9754V80.3531H730.93C731.714 88.4259 734.423 94.6453 739.056 99.0291C743.689 103.413 749.891 105.605 757.66 105.605C763.362 105.605 768.049 104.518 771.684 102.362C775.319 100.205 777.832 96.9441 779.222 92.6137H799.59C797.416 101.863 792.676 109.08 785.334 114.248C777.992 119.416 768.815 122 757.803 122H757.785ZM731.501 66.3283H780.808C780.024 59.8238 777.565 54.834 773.431 51.3412C769.296 47.8483 763.843 46.1019 757.036 46.1019C750.229 46.1019 744.634 47.8483 740.197 51.3412C735.777 54.834 732.855 59.8238 731.483 66.3283H731.501Z" fill="#FAFAFA"/>
<path d="M621.749 44.8189H627.951C627.951 37.0669 634.223 30.7941 641.975 30.7941H670.771C685.437 30.7941 697.341 42.6982 697.341 57.3646V122H677.258V59.7169C677.258 52.357 671.27 46.4049 663.911 46.4406L630.178 46.5831V122.018H610.968V51.0205H600.775V30.7941H621.749V44.8189Z" fill="#FAFAFA"/>
<path d="M120.265 31.186L97.563 53.8895V99.2965L120.265 122H165.67L188.372 99.2965V31.186H120.265ZM172.281 91.2415L157.616 105.908H128.302L113.636 91.2415V61.9266L128.302 47.2602H172.281V91.2415Z" fill="url(#paint0_linear_704_1940)"/>
<path d="M518.287 31.186L495.585 53.8895V99.2965L518.287 122H563.692L586.394 99.2965V31.186H518.287ZM570.303 91.2415L555.638 105.908H526.324L511.658 91.2415V61.9266L526.324 47.2602H570.303V91.2415Z" fill="url(#paint1_linear_704_1940)"/>
</g>
<defs>
<linearGradient id="paint0_linear_704_1940" x1="108.914" y1="110.648" x2="188.376" y2="31.1899" gradientUnits="userSpaceOnUse">
<stop stop-color="#C800DE"/>
<stop offset="1" stop-color="#53EAFD"/>
</linearGradient>
<linearGradient id="paint1_linear_704_1940" x1="506.936" y1="110.648" x2="586.398" y2="31.1899" gradientUnits="userSpaceOnUse">
<stop stop-color="#C800DE"/>
<stop offset="1" stop-color="#53EAFD"/>
</linearGradient>
<clipPath id="clip0_704_1940">
<rect width="800" height="122" fill="white"/>
</clipPath>
</defs>
</svg>
