<svg width="242" height="122" viewBox="0 0 242 122" fill="none" xmlns="http://www.w3.org/2000/svg">
<path d="M60.3583 121.821H58.3278V111.693H54.2422V109.932H64.4439V111.693H60.3583V121.821Z" fill="#FCFCFC"/>
<path d="M68.521 122C67.5876 122 66.777 121.812 66.0811 121.437C65.3851 121.062 64.8529 120.524 64.4845 119.831C64.1079 119.138 63.9277 118.322 63.9277 117.393C63.9277 116.463 64.1079 115.656 64.4845 114.979C64.8529 114.302 65.3769 113.772 66.0565 113.397C66.7361 113.022 67.5385 112.843 68.4555 112.843C69.3725 112.843 70.1012 113.014 70.7398 113.365C71.3784 113.715 71.8697 114.204 72.2217 114.849C72.5738 115.493 72.7457 116.251 72.7457 117.132V117.866H65.8518C65.9337 118.665 66.2039 119.284 66.6624 119.725C67.1209 120.157 67.7431 120.377 68.521 120.377C69.0859 120.377 69.5608 120.271 69.921 120.051C70.2813 119.839 70.5351 119.513 70.6743 119.081H72.7048C72.4919 120.002 72.017 120.72 71.2802 121.233C70.5433 121.747 69.6345 122 68.5291 122H68.521ZM65.9009 116.463H70.8217C70.7398 115.819 70.4942 115.322 70.0848 114.971C69.6754 114.62 69.1268 114.449 68.4473 114.449C67.7677 114.449 67.211 114.62 66.7688 114.971C66.3267 115.322 66.0401 115.811 65.9009 116.463Z" fill="#FCFCFC"/>
<path d="M78.4688 122C77.5681 122 76.7739 121.812 76.0944 121.437C75.4148 121.062 74.8908 120.532 74.5142 119.847C74.1375 119.162 73.9492 118.355 73.9492 117.425C73.9492 116.496 74.1375 115.689 74.506 115.004C74.8826 114.319 75.4066 113.789 76.0862 113.414C76.7657 113.039 77.5599 112.851 78.4769 112.851C79.5986 112.851 80.5238 113.128 81.2607 113.691C81.9976 114.245 82.4725 115.028 82.6935 116.039H80.6712C80.5238 115.558 80.2618 115.199 79.8934 114.955C79.525 114.71 79.0501 114.588 78.4688 114.588C77.6909 114.588 77.0769 114.841 76.6266 115.338C76.1762 115.835 75.947 116.537 75.947 117.434C75.947 118.331 76.1762 119.032 76.6266 119.529C77.0769 120.027 77.6909 120.279 78.4688 120.279C79.6887 120.279 80.4338 119.749 80.7122 118.681H82.7345C82.538 119.749 82.0713 120.573 81.3344 121.144C80.5975 121.714 79.6478 122.008 78.4769 122.008L78.4688 122Z" fill="#FCFCFC"/>
<path d="M84.0121 121.821V109.492H86.018V114.368H86.0754C86.3619 113.87 86.7467 113.495 87.2462 113.234C87.7456 112.982 88.3269 112.851 89.0065 112.851C90.12 112.851 90.9961 113.177 91.6511 113.838C92.3061 114.498 92.6336 115.379 92.6336 116.488V121.812H90.6277V116.838C90.6277 116.113 90.4312 115.558 90.0463 115.183C89.6615 114.8 89.0884 114.612 88.3269 114.612C87.5655 114.612 86.9924 114.8 86.5994 115.183C86.2064 115.566 86.0099 116.121 86.0099 116.838V121.812H84.0039L84.0121 121.821Z" fill="#FCFCFC"/>
<path d="M102.598 121.82V117.376L98.1357 109.94H100.461L103.63 115.33H103.687L106.872 109.94H109.099L104.637 117.352V121.828H102.606L102.598 121.82Z" fill="#FCFCFC"/>
<path d="M113.029 122C112.096 122 111.285 121.812 110.589 121.437C109.893 121.062 109.361 120.532 108.976 119.847C108.592 119.162 108.403 118.355 108.403 117.425C108.403 116.496 108.592 115.689 108.968 115.004C109.345 114.319 109.885 113.789 110.581 113.414C111.277 113.039 112.096 112.851 113.046 112.851C113.995 112.851 114.822 113.039 115.51 113.406C116.198 113.781 116.73 114.302 117.099 114.987C117.475 115.672 117.655 116.488 117.655 117.425C117.655 118.363 117.467 119.162 117.09 119.855C116.714 120.548 116.182 121.078 115.494 121.445C114.806 121.82 113.987 122 113.029 122ZM113.029 120.271C113.864 120.271 114.511 120.018 114.97 119.505C115.428 118.991 115.658 118.298 115.658 117.409C115.658 116.52 115.428 115.827 114.97 115.322C114.511 114.816 113.864 114.572 113.029 114.572C112.194 114.572 111.564 114.824 111.097 115.33C110.639 115.835 110.401 116.529 110.401 117.409C110.401 118.29 110.63 118.999 111.097 119.505C111.564 120.01 112.202 120.271 113.029 120.271Z" fill="#FCFCFC"/>
<path d="M123.018 121.984C121.839 121.984 120.922 121.666 120.267 121.03C119.612 120.394 119.284 119.529 119.284 118.428V113.014H121.29V118.037C121.29 118.763 121.478 119.309 121.847 119.676C122.224 120.043 122.772 120.23 123.509 120.23C124.246 120.23 124.852 120.035 125.269 119.643C125.687 119.252 125.892 118.706 125.892 117.996V113.022H127.898V119.815H128.913V121.829H126.833V120.434H126.211C125.875 120.94 125.449 121.331 124.925 121.592C124.401 121.853 123.763 121.992 122.993 121.992L123.018 121.984Z" fill="#FCFCFC"/>
<path d="M130.943 121.82V115.028H129.928V113.014H132.024V114.702H132.646C132.883 114.123 133.26 113.683 133.776 113.381C134.292 113.079 134.881 112.924 135.553 112.924H136.289V114.645H135.463C134.627 114.645 133.997 114.881 133.571 115.362C133.145 115.843 132.933 116.479 132.933 117.287V121.82H130.959H130.943Z" fill="#FCFCFC"/>
<path d="M145.959 121.821L141.096 109.932H143.339L147.171 119.586H147.245L151.06 109.932H153.238L148.374 121.821H145.959Z" fill="#FCFCFC"/>
<path d="M155.588 111.962C155.277 111.962 155.006 111.856 154.777 111.636C154.548 111.416 154.441 111.147 154.441 110.821C154.441 110.495 154.556 110.242 154.777 110.014C154.998 109.785 155.268 109.679 155.596 109.679C155.923 109.679 156.177 109.793 156.406 110.005C156.636 110.226 156.742 110.495 156.742 110.821C156.742 111.147 156.627 111.4 156.406 111.628C156.185 111.856 155.915 111.962 155.588 111.962ZM154.581 121.82V113.014H156.587V121.82H154.581Z" fill="#FCFCFC"/>
<path d="M164.135 122C163.407 122 162.784 121.87 162.26 121.601C161.736 121.331 161.335 120.94 161.041 120.435H160.418V121.829H158.322V119.815H159.338V109.5H161.343V114.343H161.401C161.663 113.862 162.048 113.495 162.539 113.235C163.038 112.974 163.62 112.843 164.283 112.843C165.126 112.843 165.855 113.031 166.453 113.398C167.058 113.773 167.517 114.303 167.836 114.988C168.156 115.681 168.319 116.488 168.319 117.418C168.319 118.347 168.156 119.154 167.828 119.839C167.501 120.524 167.026 121.054 166.395 121.429C165.773 121.804 165.012 121.992 164.119 121.992L164.135 122ZM163.775 120.28C164.602 120.28 165.233 120.027 165.667 119.513C166.1 119.008 166.322 118.306 166.322 117.418C166.322 116.529 166.1 115.827 165.667 115.322C165.233 114.816 164.594 114.555 163.775 114.555C163.038 114.555 162.449 114.767 162.007 115.183C161.565 115.607 161.343 116.17 161.343 116.888V117.948C161.343 118.665 161.565 119.228 162.007 119.652C162.449 120.076 163.038 120.28 163.775 120.28Z" fill="#FCFCFC"/>
<path d="M174.141 122C173.208 122 172.397 121.812 171.701 121.437C171.005 121.062 170.473 120.524 170.105 119.831C169.728 119.138 169.548 118.322 169.548 117.393C169.548 116.463 169.728 115.656 170.105 114.979C170.473 114.302 170.997 113.772 171.677 113.397C172.356 113.022 173.159 112.843 174.076 112.843C174.993 112.843 175.721 113.014 176.36 113.365C176.999 113.715 177.49 114.204 177.842 114.849C178.194 115.493 178.366 116.251 178.366 117.132V117.866H171.472C171.554 118.665 171.824 119.284 172.282 119.725C172.741 120.157 173.363 120.377 174.141 120.377C174.706 120.377 175.181 120.271 175.541 120.051C175.901 119.839 176.155 119.513 176.294 119.081H178.325C178.112 120.002 177.637 120.72 176.9 121.233C176.163 121.747 175.255 122 174.149 122H174.141ZM171.513 116.463H176.434C176.352 115.819 176.106 115.322 175.697 114.971C175.287 114.62 174.739 114.449 174.059 114.449C173.38 114.449 172.823 114.62 172.381 114.971C171.939 115.322 171.652 115.811 171.513 116.463Z" fill="#FCFCFC"/>
<path d="M183.687 122C182.426 122 181.436 121.739 180.707 121.217C179.978 120.695 179.585 119.961 179.512 119.023H181.469C181.534 119.505 181.755 119.863 182.132 120.092C182.508 120.328 183.049 120.442 183.753 120.442C184.973 120.442 185.579 120.084 185.579 119.358C185.579 119.064 185.489 118.836 185.3 118.665C185.112 118.502 184.801 118.379 184.375 118.298L182.418 117.931C180.715 117.605 179.872 116.806 179.872 115.525C179.872 114.702 180.199 114.05 180.846 113.568C181.493 113.087 182.386 112.843 183.515 112.843C184.645 112.843 185.562 113.096 186.234 113.593C186.905 114.09 187.282 114.783 187.364 115.68H185.431C185.325 115.232 185.112 114.898 184.793 114.686C184.473 114.474 184.015 114.359 183.417 114.359C182.885 114.359 182.476 114.449 182.197 114.62C181.911 114.8 181.771 115.053 181.771 115.387C181.771 115.631 181.862 115.827 182.042 115.982C182.222 116.137 182.508 116.251 182.901 116.325L184.875 116.708C185.767 116.871 186.422 117.156 186.831 117.564C187.241 117.972 187.454 118.518 187.454 119.203C187.454 120.084 187.126 120.768 186.479 121.266C185.833 121.763 184.899 122.008 183.696 122.008L183.687 122Z" fill="#FCFCFC"/>
<path d="M106.266 0.0327148H77.1104L62.5283 14.555V43.5913L77.1104 58.1136H120.848V14.5468L106.266 0.0327148ZM100.887 22.0811H87.2548V36.057H100.887V40.8108H82.4814V17.3273H100.887V22.0811Z" fill="url(#paint0_linear_1327_1519)"/>
<path d="M164.587 0H120.849V43.5586L135.431 58.0809H164.587L179.169 43.5586V14.5223L164.587 0ZM159.641 40.7781H140.368V37.1822L152.125 22.0484H140.892V17.2946H159.289V20.8905L147.556 36.0243H159.633V40.7781H159.641Z" fill="url(#paint1_linear_1327_1519)"/>
<path d="M13.6732 103.776C10.9386 103.776 8.55601 103.205 6.50093 102.072C4.45404 100.93 2.85746 99.3321 1.7112 97.261C0.564942 95.1899 0 92.7518 0 89.9468C0 87.1419 0.564942 84.7038 1.69483 82.6327C2.82471 80.5616 4.4131 78.9634 6.45999 77.8219C8.50689 76.6803 10.914 76.1177 13.6732 76.1177C17.0547 76.1177 19.863 76.9575 22.0901 78.6454C24.3171 80.3333 25.7581 82.6979 26.4049 85.7394H20.3052C19.863 84.288 19.077 83.1953 17.9635 82.4615C16.85 81.7195 15.4172 81.3525 13.6651 81.3525C11.3234 81.3525 9.46483 82.1027 8.09751 83.6112C6.73018 85.1197 6.05061 87.2316 6.05061 89.955C6.05061 92.6784 6.73018 94.7903 8.09751 96.2988C9.46483 97.8073 11.3152 98.5575 13.6651 98.5575C17.3495 98.5575 19.601 96.943 20.4362 93.7221H26.5359C25.9464 96.943 24.53 99.4299 22.3029 101.175C20.0759 102.92 17.1939 103.792 13.6651 103.792L13.6732 103.776Z" fill="#FCFCFC"/>
<path d="M73.8353 103.646C71.1334 103.646 68.8327 103.075 66.9331 101.941C65.0336 100.8 63.5926 99.2016 62.6101 97.1305C61.6276 95.0594 61.1445 92.6214 61.1445 89.8164C61.1445 87.0114 61.6276 84.5652 62.5937 82.4778C63.5599 80.3904 64.9517 78.7922 66.7776 77.6669C68.6034 76.5417 70.7813 75.9791 73.3031 75.9791C75.3827 75.9791 77.1594 76.3705 78.6496 77.1532C80.1315 77.936 81.2778 79.0531 82.0801 80.5045H82.2603V67.1401H88.3191V97.0408H91.3485V103.776H84.5774V98.9081H83.1937C82.2766 100.449 81.0321 101.623 79.4765 102.431C77.9209 103.246 76.0377 103.654 73.8435 103.654L73.8353 103.646ZM74.8587 98.4596C77.1185 98.4596 78.9116 97.8236 80.2461 96.5516C81.5807 95.2796 82.2521 93.5672 82.2521 91.4064V88.2101C82.2521 86.0492 81.5807 84.3369 80.2461 83.0649C78.9116 81.7929 77.1103 81.1568 74.8587 81.1568C72.3943 81.1568 70.5029 81.9233 69.1847 83.4644C67.8665 85.0055 67.2033 87.1174 67.2033 89.8082C67.2033 92.4991 67.8665 94.6109 69.1847 96.152C70.5029 97.6931 72.3943 98.4596 74.8587 98.4596Z" fill="#FCFCFC"/>
<path d="M108.838 103.776C106.013 103.776 103.565 103.205 101.469 102.072C99.3728 100.93 97.7681 99.316 96.6382 97.2204C95.5083 95.1248 94.9434 92.6705 94.9434 89.8573C94.9434 87.0442 95.5001 84.6143 96.6136 82.5595C97.7271 80.5047 99.3073 78.9147 101.354 77.7894C103.401 76.6642 105.825 76.1016 108.608 76.1016C111.392 76.1016 113.578 76.6234 115.511 77.6753C117.443 78.7271 118.933 80.2193 119.989 82.1518C121.045 84.0925 121.569 86.3837 121.569 89.0501V91.268H100.732C100.969 93.6897 101.788 95.5651 103.18 96.8779C104.572 98.1907 106.447 98.8512 108.789 98.8512C110.508 98.8512 111.916 98.525 113.022 97.8727C114.119 97.2204 114.88 96.2501 115.289 94.9454H121.438C120.783 97.7259 119.351 99.8868 117.14 101.444C114.929 102.993 112.162 103.776 108.838 103.776ZM100.912 87.0605H115.781C115.543 85.1117 114.798 83.6114 113.554 82.5595C112.309 81.5077 110.663 80.9858 108.608 80.9858C106.553 80.9858 104.867 81.5077 103.532 82.5595C102.198 83.6114 101.321 85.1117 100.904 87.0605H100.912Z" fill="#FCFCFC"/>
<path d="M125.188 103.776V99.9191L140.285 81.222H125.99V76.3867H147.761V80.2436L132.622 98.9407H148.031V103.776H125.188Z" fill="#FCFCFC"/>
<path d="M229.268 103.776C226.444 103.776 223.996 103.205 221.9 102.072C219.803 100.93 218.199 99.316 217.069 97.2204C215.939 95.1248 215.374 92.6705 215.374 89.8573C215.374 87.0442 215.931 84.6143 217.044 82.5595C218.158 80.5047 219.738 78.9147 221.785 77.7894C223.832 76.6642 226.255 76.1016 229.039 76.1016C231.823 76.1016 234.009 76.6234 235.941 77.6753C237.873 78.7271 239.364 80.2193 240.42 82.1518C241.476 84.0925 242 86.3837 242 89.0501V91.268H221.163C221.4 93.6897 222.219 95.5651 223.611 96.8779C225.003 98.1907 226.878 98.8512 229.219 98.8512C230.939 98.8512 232.347 98.525 233.452 97.8727C234.549 97.2204 235.311 96.2501 235.72 94.9454H241.869C241.214 97.7259 239.781 99.8868 237.571 101.444C235.36 102.993 232.592 103.776 229.268 103.776ZM221.343 87.0605H236.211C235.974 85.1117 235.229 83.6114 233.984 82.5595C232.74 81.5077 231.094 80.9858 229.039 80.9858C226.984 80.9858 225.297 81.5077 223.963 82.5595C222.628 83.6114 221.752 85.1117 221.335 87.0605H221.343Z" fill="#FCFCFC"/>
<path d="M188.96 80.594H190.827C190.827 78.2701 192.719 76.3784 195.06 76.3784H203.747C208.177 76.3784 211.763 79.9499 211.763 84.3612V103.776H205.704V85.0706C205.704 82.8608 203.903 81.0751 201.684 81.0833L191.507 81.124V103.784H185.71V82.4694H182.64V76.3947H188.96V80.6103V80.594Z" fill="#FCFCFC"/>
<path d="M158.486 76.501L151.642 83.3177V96.9512L158.486 103.768H172.176L179.021 96.9512V76.501H158.486ZM174.174 94.5376L169.753 98.9408H160.91L156.489 94.5376V85.7313L160.91 81.3281H174.174V94.5376Z" fill="url(#paint2_linear_1327_1519)"/>
<path d="M37.0001 76.501L30.1553 83.3177V96.9512L37.0001 103.768H50.6897L57.5345 96.9512V76.501H37.0001ZM52.6875 94.5376L48.2662 98.9408H39.4236L35.0023 94.5376V85.7313L39.4236 81.3281H52.6875V94.5376Z" fill="url(#paint3_linear_1327_1519)"/>
<defs>
<linearGradient id="paint0_linear_1327_1519" x1="73.4669" y1="54.4769" x2="117.017" y2="10.7393" gradientUnits="userSpaceOnUse">
<stop stop-color="#C800DE"/>
<stop offset="1" stop-color="#53EAFD"/>
</linearGradient>
<linearGradient id="paint1_linear_1327_1519" x1="120.849" y1="0" x2="171.664" y2="51.0245" gradientUnits="userSpaceOnUse">
<stop stop-color="#C800DE"/>
<stop offset="1" stop-color="#53EAFD"/>
</linearGradient>
<linearGradient id="paint2_linear_1327_1519" x1="151.642" y1="90.1426" x2="179.029" y2="90.1426" gradientUnits="userSpaceOnUse">
<stop stop-color="#C800DE"/>
<stop offset="1" stop-color="#53EAFD"/>
</linearGradient>
<linearGradient id="paint3_linear_1327_1519" x1="30.1471" y1="90.1426" x2="57.5345" y2="90.1426" gradientUnits="userSpaceOnUse">
<stop stop-color="#C800DE"/>
<stop offset="1" stop-color="#53EAFD"/>
</linearGradient>
</defs>
</svg>
