<svg width="80" height="80" viewBox="0 0 80 80" fill="none" xmlns="http://www.w3.org/2000/svg">
<rect x="1" y="1" width="78" height="78" rx="39" fill="url(#paint0_linear_662_2093)"/>
<rect x="1" y="1" width="78" height="78" rx="39" stroke="url(#paint1_linear_662_2093)" stroke-width="2"/>
<g clip-path="url(#clip0_662_2093)">
<path d="M29.5789 36.0165L29.8947 37.4506C29.8947 37.9286 30.0526 38.2473 30.3683 38.7253V39.044L30.2105 39.522L29.1052 40.1594L28.7894 40.3187L28.3157 40.1594L27.6841 39.3626L27.2105 38.4066C25.9473 39.8407 24.3683 40.6374 22.6315 40.6374C21.2104 40.6374 20.1052 40.1594 19.4736 39.3626C18.6841 38.7253 18.2104 37.6099 18.2104 36.3352C18.2104 35.0604 18.6841 33.9451 19.6315 33.1484C20.5789 32.1923 21.842 31.8736 23.5789 31.8736C24.7533 31.8672 25.9227 32.0281 27.0526 32.3517V31.2363C27.0526 29.9615 26.7368 29.1648 26.2631 28.6868C25.7894 28.0495 24.9999 27.8901 23.7368 27.8901L21.9999 28.0495C21.2402 28.2452 20.5001 28.5119 19.7894 28.8462H19.4736C19.3157 28.8462 19.1578 28.6868 19.1578 28.3681V27.5714L19.3157 27.0934C19.3157 26.9341 19.4736 26.7747 19.7894 26.7747L21.6841 25.978L24.2104 25.6594C26.1052 25.6594 27.3683 26.1374 28.3157 26.9341C29.1052 27.8901 29.5789 29.1648 29.5789 30.9176V36.0165ZM23.2631 38.5659L24.842 38.2473C25.4736 38.0879 25.9473 37.6099 26.421 37.1319L26.8947 36.1758L27.0526 34.7418V34.1044C26.0678 33.8834 25.0613 33.7765 24.0526 33.7857C23.1052 33.7857 22.3157 33.9451 21.6841 34.4231C21.2104 34.7418 21.0526 35.3791 21.0526 36.1758C21.0526 36.9725 21.2104 37.4506 21.5262 37.9286C21.9999 38.2473 22.4736 38.5659 23.2631 38.5659ZM35.8947 40.1594L35.2631 40L34.9473 39.522L31.3157 27.0934L31.1578 26.4561L31.4736 26.1374H33.0526L33.6841 26.2967L33.9999 26.9341L36.6841 37.4506L39.0526 26.9341L39.3683 26.2967L39.9999 26.1374H41.2631L41.8947 26.2967L42.2105 26.9341L44.7368 37.6099L47.421 26.9341L47.7368 26.2967L48.3683 26.1374H49.7894C50.1052 26.1374 50.2631 26.2967 50.2631 26.4561V26.7747L50.1052 27.0934L46.3157 39.522L45.9999 40.1594L45.3683 40.3187H43.9473L43.3157 40.1594L43.1578 39.522L40.6315 29.1648L38.2631 39.3626L37.9473 40L37.3157 40.1594H35.8947ZM56.2631 40.6374C54.7911 40.6261 53.3381 40.3003 51.9999 39.6813L51.5262 39.2033L51.3683 38.8846V38.0879C51.3683 37.7692 51.5262 37.6099 51.6841 37.6099H51.9999L52.4736 37.7692C53.6114 38.3011 54.8513 38.5731 56.1052 38.5659C57.0526 38.5659 57.842 38.2473 58.3157 37.9286C58.9473 37.6099 59.1052 37.1319 59.1052 36.4945L58.7894 35.3791L57.2105 34.5824L54.842 33.7857C53.7368 33.467 52.7894 32.8297 52.3157 32.1923C52.0089 31.7867 51.7856 31.3232 51.6591 30.8291C51.5325 30.3351 51.5052 29.8204 51.5788 29.3156C51.6523 28.8107 51.8253 28.3258 52.0874 27.8894C52.3496 27.4531 52.6956 27.0741 53.1052 26.7747L54.6841 25.978C55.6983 25.6273 56.7791 25.5183 57.842 25.6594C58.482 25.7827 59.1146 25.9423 59.7368 26.1374L60.3683 26.4561L60.842 26.7747L60.9999 27.4121V28.0495C60.9999 28.5275 60.842 28.6868 60.6841 28.6868L60.0526 28.3681C59.1052 28.0495 58.1578 27.8901 57.0526 27.8901C56.1052 27.8901 55.3157 27.8901 54.842 28.2088C54.3683 28.5275 54.2105 29.0055 54.2105 29.6429C54.2105 30.1209 54.3683 30.4396 54.6841 30.7583C54.9999 31.0769 55.4736 31.3956 56.421 31.7143L58.6315 32.3517C59.7368 32.8297 60.5262 33.3077 60.9999 33.9451C61.4736 34.5824 61.7894 35.3791 61.7894 36.1758L61.3157 38.0879L60.2105 39.3626C59.7368 39.8407 59.1052 40.1594 58.4736 40.3187L56.2631 40.6374Z" fill="white"/>
<path d="M59.2631 48.4451C52.8222 52.7863 45.1283 54.8306 37.4041 54.2532C29.6798 53.6758 22.3684 50.5098 16.6316 45.2582C16 44.7802 16.4737 44.3022 16.9473 44.6209C23.2204 48.207 30.2219 50.3007 37.4183 50.7425C44.6147 51.1844 51.8161 49.9626 58.4737 47.1703C59.2631 46.8517 60.0526 47.8077 59.2631 48.4451Z" fill="#FF9900"/>
<path d="M61.3159 45.8956C60.6843 45.0989 56.8948 45.4176 55.3159 45.7363C54.6843 45.7363 54.6843 45.2583 55.158 44.9396C58.158 42.8681 63.0527 43.5055 63.5264 44.1429C64.158 44.9396 63.3685 49.8791 60.6843 52.2692C60.2106 52.5879 59.7369 52.4286 59.8948 51.9506C60.6843 50.3572 61.9474 46.6923 61.3159 45.8956Z" fill="#FF9900"/>
</g>
<defs>
<linearGradient id="paint0_linear_662_2093" x1="40" y1="-1.89616e-06" x2="40" y2="80" gradientUnits="userSpaceOnUse">
<stop offset="0.00376832" stop-color="#020618"/>
<stop offset="0.630552" stop-color="#121D46"/>
</linearGradient>
<linearGradient id="paint1_linear_662_2093" x1="10" y1="70" x2="80" y2="5.21541e-07" gradientUnits="userSpaceOnUse">
<stop stop-color="#C800DE"/>
<stop offset="1" stop-color="#53EAFD"/>
</linearGradient>
<clipPath id="clip0_662_2093">
<rect width="48" height="29" fill="white" transform="translate(16 25.5)"/>
</clipPath>
</defs>
</svg>
