<svg width="80" height="80" viewBox="0 0 80 80" fill="none" xmlns="http://www.w3.org/2000/svg">
<rect x="1" y="1" width="78" height="78" rx="39" fill="url(#paint0_linear_662_2062)"/>
<rect x="1" y="1" width="78" height="78" rx="39" stroke="url(#paint1_linear_662_2062)" stroke-width="2"/>
<g clip-path="url(#clip0_662_2062)">
<path d="M40.9465 20.2507C40.3526 19.9161 39.6474 19.9161 39.0535 20.2507L23.4279 29.2876C22.834 29.6223 22.5 30.2544 22.5 30.9238V49.0344C22.5 49.7039 22.8712 50.3361 23.4279 50.6707L39.0535 59.7075C39.6474 60.0423 40.3526 60.0423 40.9465 59.7075L56.5721 50.6707C57.166 50.3361 57.5 49.7039 57.5 49.0344V30.9238C57.5 30.2544 57.1288 29.6223 56.5721 29.2876L40.9465 20.2507Z" fill="url(#paint2_linear_662_2062)"/>
<mask id="mask0_662_2062" style="mask-type:luminance" maskUnits="userSpaceOnUse" x="22" y="19" width="36" height="41">
<path d="M40.9465 20.2507C40.3526 19.9161 39.6474 19.9161 39.0535 20.2507L23.4279 29.2876C22.834 29.6223 22.5 30.2544 22.5 30.9238V49.0344C22.5 49.7039 22.8712 50.3361 23.4279 50.6707L39.0535 59.7075C39.6474 60.0423 40.3526 60.0423 40.9465 59.7075L56.5721 50.6707C57.166 50.3361 57.5 49.7039 57.5 49.0344V30.9238C57.5 30.2544 57.1288 29.6223 56.5721 29.2876L40.9465 20.2507Z" fill="white"/>
</mask>
<g mask="url(#mask0_662_2062)">
<path d="M56.6093 29.2877L40.9092 20.2511C40.7607 20.1768 40.5752 20.1024 40.4267 20.0652L22.834 50.2619C22.9825 50.4478 23.1681 50.5966 23.3535 50.7082L39.0535 59.7449C39.4989 60.0052 40.0186 60.0796 40.5011 59.9308L57.0174 29.6596C56.9059 29.5108 56.7576 29.3993 56.6091 29.2878L56.6093 29.2877Z" fill="url(#paint3_linear_662_2062)"/>
</g>
<mask id="mask1_662_2062" style="mask-type:luminance" maskUnits="userSpaceOnUse" x="22" y="19" width="36" height="41">
<path d="M40.9465 20.2507C40.3526 19.9161 39.6474 19.9161 39.0535 20.2507L23.4279 29.2876C22.834 29.6223 22.5 30.2544 22.5 30.9238V49.0344C22.5 49.7039 22.8712 50.3361 23.4279 50.6707L39.0535 59.7075C39.6474 60.0423 40.3526 60.0423 40.9465 59.7075L56.5721 50.6707C57.166 50.3361 57.5 49.7039 57.5 49.0344V30.9238C57.5 30.2544 57.1288 29.6223 56.5721 29.2876L40.9465 20.2507Z" fill="white"/>
</mask>
<g mask="url(#mask1_662_2062)">
<path d="M56.6463 50.671C57.0917 50.4107 57.4257 49.9644 57.5742 49.481L40.3526 20.028C39.9071 19.9536 39.4246 19.9907 39.0164 20.251L23.4277 29.2507L40.2413 59.9683C40.4638 59.931 40.7238 59.8566 40.9465 59.745L56.6463 50.6712V50.671Z" fill="url(#paint4_linear_662_2062)"/>
</g>
</g>
<defs>
<linearGradient id="paint0_linear_662_2062" x1="40" y1="-1.89616e-06" x2="40" y2="80" gradientUnits="userSpaceOnUse">
<stop offset="0.00376832" stop-color="#020618"/>
<stop offset="0.630552" stop-color="#121D46"/>
</linearGradient>
<linearGradient id="paint1_linear_662_2062" x1="10" y1="70" x2="80" y2="5.21541e-07" gradientUnits="userSpaceOnUse">
<stop stop-color="#C800DE"/>
<stop offset="1" stop-color="#53EAFD"/>
</linearGradient>
<linearGradient id="paint2_linear_662_2062" x1="2409.08" y1="718.759" x2="691.548" y2="3412.16" gradientUnits="userSpaceOnUse">
<stop stop-color="#41873F"/>
<stop offset="0.3288" stop-color="#418B3D"/>
<stop offset="0.6352" stop-color="#419637"/>
<stop offset="0.9319" stop-color="#3FA92D"/>
<stop offset="1" stop-color="#3FAE2A"/>
</linearGradient>
<linearGradient id="paint3_linear_662_2062" x1="1502.19" y1="2223.59" x2="5795.37" y2="-104.349" gradientUnits="userSpaceOnUse">
<stop offset="0.1376" stop-color="#41873F"/>
<stop offset="0.4032" stop-color="#54A044"/>
<stop offset="0.7136" stop-color="#66B848"/>
<stop offset="0.9081" stop-color="#6CC04A"/>
</linearGradient>
<linearGradient id="paint4_linear_662_2062" x1="-126.441" y1="2018.58" x2="3489.26" y2="2018.58" gradientUnits="userSpaceOnUse">
<stop offset="0.09192" stop-color="#6CC04A"/>
<stop offset="0.2864" stop-color="#66B848"/>
<stop offset="0.5968" stop-color="#54A044"/>
<stop offset="0.8624" stop-color="#41873F"/>
</linearGradient>
<clipPath id="clip0_662_2062">
<rect width="35" height="40" fill="white" transform="translate(22.5 20)"/>
</clipPath>
</defs>
</svg>
