<svg width="80" height="80" viewBox="0 0 80 80" fill="none" xmlns="http://www.w3.org/2000/svg">
<rect x="1" y="1" width="78" height="78" rx="39" fill="url(#paint0_linear_662_2073)"/>
<rect x="1" y="1" width="78" height="78" rx="39" stroke="url(#paint1_linear_662_2073)" stroke-width="2"/>
<g clip-path="url(#clip0_662_2073)">
<mask id="mask0_662_2073" style="mask-type:luminance" maskUnits="userSpaceOnUse" x="22" y="20" width="36" height="40">
<path d="M22.5 20H57.5V59.9246H22.5V20Z" fill="white"/>
</mask>
<g mask="url(#mask0_662_2073)">
<path d="M57.0547 49.9434C57.3293 49.4612 57.5 48.9179 57.5 48.43V31.4944C57.5 31.0066 57.3296 30.4634 57.0548 29.9812L40 39.9623L57.0547 49.9434Z" fill="#00599C"/>
<path d="M41.5156 59.5586L55.9845 51.0909C56.4013 50.8469 56.7801 50.4257 57.0548 49.9434L40 39.9623L22.9453 49.9435C23.2198 50.4257 23.5989 50.847 24.0156 51.0909L38.4845 59.5586C39.318 60.0465 40.6821 60.0465 41.5156 59.5586Z" fill="#004482"/>
<path d="M57.0548 29.9811C56.7801 29.4988 56.4012 29.0776 55.9845 28.8336L41.5155 20.3659C40.682 19.878 39.318 19.878 38.4845 20.3659L24.0155 28.8336C23.1819 29.3214 22.5 30.5188 22.5 31.4945V48.43C22.5 48.9179 22.6705 49.4612 22.9453 49.9434L40 39.9623L57.0548 29.9811Z" fill="#659AD2"/>
<path d="M40.0002 51.7884C33.5671 51.7884 28.3335 46.4832 28.3335 39.9623C28.3335 33.4414 33.5671 28.1362 40.0002 28.1362C44.1512 28.1362 48.0226 30.4006 50.1034 34.0456L45.0543 37.0072C44.0129 35.1827 42.0761 34.0493 40.0002 34.0493C36.7836 34.0493 34.1668 36.7018 34.1668 39.9623C34.1668 43.2227 36.7836 45.8754 40.0002 45.8754C42.0764 45.8754 44.0132 44.7419 45.0547 42.9171L50.1037 45.8786C48.0229 49.5239 44.1514 51.7884 40.0002 51.7884Z" fill="white"/>
</g>
</g>
<defs>
<linearGradient id="paint0_linear_662_2073" x1="40" y1="-1.89616e-06" x2="40" y2="80" gradientUnits="userSpaceOnUse">
<stop offset="0.00376832" stop-color="#020618"/>
<stop offset="0.630552" stop-color="#121D46"/>
</linearGradient>
<linearGradient id="paint1_linear_662_2073" x1="10" y1="70" x2="80" y2="5.21541e-07" gradientUnits="userSpaceOnUse">
<stop stop-color="#C800DE"/>
<stop offset="1" stop-color="#53EAFD"/>
</linearGradient>
<clipPath id="clip0_662_2073">
<rect width="35" height="40" fill="white" transform="translate(22.5 20)"/>
</clipPath>
</defs>
</svg>
