<svg width="80" height="80" viewBox="0 0 80 80" fill="none" xmlns="http://www.w3.org/2000/svg">
<rect x="1" y="1" width="78" height="78" rx="39" fill="url(#paint0_linear_662_2083)"/>
<rect x="1" y="1" width="78" height="78" rx="39" stroke="url(#paint1_linear_662_2083)" stroke-width="2"/>
<g clip-path="url(#clip0_662_2083)">
<path d="M39.8563 20C29.7013 20 30.335 24.4038 30.335 24.4038L30.3475 28.9663H40.0375V30.335H26.4963C26.4963 30.335 20 29.5975 20 39.845C20 50.09 25.6713 49.7275 25.6713 49.7275H29.0563V44.9725C29.0563 44.9725 28.8737 39.3013 34.6375 39.3013H44.2475C44.2475 39.3013 49.6475 39.3888 49.6475 34.0825V25.3087C49.6475 25.3087 50.4675 20 39.8563 20ZM34.5125 23.0675C34.975 23.0675 35.4185 23.2512 35.7455 23.5782C36.0725 23.9053 36.2563 24.3488 36.2563 24.8113C36.2563 25.2737 36.0725 25.7173 35.7455 26.0443C35.4185 26.3713 34.975 26.555 34.5125 26.555C34.2834 26.5553 34.0565 26.5104 33.8448 26.4229C33.6331 26.3354 33.4407 26.207 33.2788 26.045C33.1168 25.883 32.9883 25.6907 32.9008 25.4789C32.8133 25.2672 32.7684 25.0403 32.7688 24.8113C32.7688 23.8475 33.5488 23.0675 34.5125 23.0675Z" fill="url(#paint2_linear_662_2083)"/>
<path d="M40.1438 59.7912C50.2988 59.7912 49.6651 55.3875 49.6651 55.3875L49.6526 50.825H39.9626V49.4562H53.5026C53.5026 49.4562 60.0001 50.1937 60.0001 39.9475C60.0001 29.7012 54.3288 30.065 54.3288 30.065H50.9438V34.8187C50.9438 34.8187 51.1263 40.49 45.3626 40.49H35.7526C35.7526 40.49 30.3526 40.4025 30.3526 45.7087V54.4825C30.3526 54.4825 29.5326 59.7912 40.1438 59.7912ZM45.4876 56.7237C45.2585 56.724 45.0316 56.6792 44.8199 56.5916C44.6082 56.5041 44.4158 56.3757 44.2538 56.2137C44.0918 56.0517 43.9634 55.8594 43.8759 55.6476C43.7884 55.4359 43.7435 55.209 43.7438 54.98C43.7441 54.6354 43.8465 54.2987 44.038 54.0123C44.2296 53.726 44.5017 53.5028 44.8201 53.3711C45.1384 53.2394 45.4887 53.205 45.8266 53.2722C46.1645 53.3395 46.4748 53.5055 46.7185 53.7491C46.9621 53.9927 47.128 54.3031 47.1953 54.641C47.2626 54.9788 47.2282 55.3291 47.0964 55.6475C46.9647 55.9658 46.7416 56.238 46.4552 56.4295C46.1688 56.6211 45.8321 56.7235 45.4876 56.7237Z" fill="url(#paint3_linear_662_2083)"/>
</g>
<defs>
<linearGradient id="paint0_linear_662_2083" x1="40" y1="-1.89616e-06" x2="40" y2="80" gradientUnits="userSpaceOnUse">
<stop offset="0.00376832" stop-color="#020618"/>
<stop offset="0.630552" stop-color="#121D46"/>
</linearGradient>
<linearGradient id="paint1_linear_662_2083" x1="10" y1="70" x2="80" y2="5.21541e-07" gradientUnits="userSpaceOnUse">
<stop stop-color="#C800DE"/>
<stop offset="1" stop-color="#53EAFD"/>
</linearGradient>
<linearGradient id="paint2_linear_662_2083" x1="23.8438" y1="23.4775" x2="43.6225" y2="43.3225" gradientUnits="userSpaceOnUse">
<stop stop-color="#387EB8"/>
<stop offset="1" stop-color="#366994"/>
</linearGradient>
<linearGradient id="paint3_linear_662_2083" x1="36.0113" y1="36.1025" x2="57.2538" y2="56.4537" gradientUnits="userSpaceOnUse">
<stop stop-color="#FFE052"/>
<stop offset="1" stop-color="#FFC331"/>
</linearGradient>
<clipPath id="clip0_662_2083">
<rect width="40" height="40" fill="white" transform="translate(20 20)"/>
</clipPath>
</defs>
</svg>
