<svg width="80" height="80" viewBox="0 0 80 80" fill="none" xmlns="http://www.w3.org/2000/svg">
<rect x="1" y="1" width="78" height="78" rx="39" fill="url(#paint0_linear_662_2108)"/>
<rect x="1" y="1" width="78" height="78" rx="39" stroke="url(#paint1_linear_662_2108)" stroke-width="2"/>
<path d="M34.08 38.0575L38.0575 34.0338L35.4675 31.3975L33.4325 33.4325L30.8425 30.8425L32.8313 28.8075L30.75 26.7263L26.7263 30.75L34.08 38.0575ZM49.25 53.2738L53.2738 49.25L51.1925 47.1688L49.1575 49.1575L46.5675 46.5675L48.5562 44.5325L45.92 41.9425L41.9425 45.92L49.25 53.2738ZM31.2125 56.65H23.35V48.7875L31.4438 40.6938L21.5 30.75L30.75 21.5L40.74 31.49L47.7238 24.46C48.0938 24.09 48.51 23.8125 48.9725 23.6275C49.435 23.4425 49.9129 23.35 50.4062 23.35C50.8996 23.35 51.3775 23.4425 51.84 23.6275C52.3025 23.8125 52.7188 24.09 53.0888 24.46L55.54 26.9575C55.91 27.3275 56.1875 27.7438 56.3725 28.2063C56.5575 28.6688 56.65 29.1467 56.65 29.64C56.65 30.1333 56.5575 30.6035 56.3725 31.0506C56.1875 31.4977 55.91 31.9062 55.54 32.2762L48.5562 39.3062L58.5 49.25L49.25 58.5L39.3062 48.5562L31.2125 56.65ZM27.05 52.95H29.64L47.77 34.8663L45.1338 32.23L27.05 50.36V52.95ZM46.475 33.5712L45.1338 32.23L47.77 34.8663L46.475 33.5712Z" fill="#53EAFD"/>
<defs>
<linearGradient id="paint0_linear_662_2108" x1="40" y1="-1.89616e-06" x2="40" y2="80" gradientUnits="userSpaceOnUse">
<stop offset="0.00376832" stop-color="#020618"/>
<stop offset="0.630552" stop-color="#121D46"/>
</linearGradient>
<linearGradient id="paint1_linear_662_2108" x1="10" y1="70" x2="80" y2="5.21541e-07" gradientUnits="userSpaceOnUse">
<stop stop-color="#C800DE"/>
<stop offset="1" stop-color="#53EAFD"/>
</linearGradient>
</defs>
</svg>
