<svg width="80" height="80" viewBox="0 0 80 80" fill="none" xmlns="http://www.w3.org/2000/svg">
<rect x="1" y="1" width="78" height="78" rx="39" fill="url(#paint0_linear_662_2087)"/>
<rect x="1" y="1" width="78" height="78" rx="39" stroke="url(#paint1_linear_662_2087)" stroke-width="2"/>
<path d="M34.2612 57.3666C35.8111 57.9904 37.4925 58.3605 39.258 58.4222C41.6474 58.5056 43.9195 58.0116 45.9508 57.0732C43.515 56.1162 41.309 54.7167 39.4262 52.9767C38.2058 54.9307 36.4007 56.4742 34.2612 57.3666Z" fill="#FF9100"/>
<path d="M39.4258 52.9774C35.1281 49.0026 32.5209 43.2496 32.7412 36.9395C32.7484 36.7346 32.7592 36.5298 32.7719 36.3251C31.9869 36.1216 31.1821 36.0044 30.3716 35.9757C29.2199 35.935 28.0688 36.0734 26.9594 36.3859C25.8121 38.3956 25.1198 40.7014 25.0336 43.1713C24.811 49.5454 28.6684 55.1149 34.2608 57.3672C36.4004 56.4748 38.2054 54.9332 39.4258 52.9774Z" fill="#FFC400"/>
<path d="M39.4261 52.9771C40.4253 51.378 41.0311 49.5034 41.1016 47.4836C41.2871 42.1706 37.7155 37.6002 32.7721 36.3248C32.7595 36.5296 32.7487 36.7344 32.7415 36.9392C32.5211 43.2493 35.1283 49.0023 39.4261 52.9771Z" fill="#FF9100"/>
<path d="M40.5488 21.3905C37.7334 23.646 35.5102 26.6201 34.165 30.0462C33.395 32.0086 32.911 34.1165 32.7698 36.3262C37.7131 37.6015 41.2848 42.1719 41.0993 47.4848C41.0288 49.5046 40.4212 51.3775 39.4237 52.9784C41.3064 54.7202 43.5124 56.118 45.9482 57.0749C50.8374 54.8149 54.3062 49.9518 54.5071 44.1998C54.6372 40.473 53.2054 37.1515 51.1821 34.3479C49.0454 31.3828 40.5488 21.3905 40.5488 21.3905Z" fill="#DD2C00"/>
<defs>
<linearGradient id="paint0_linear_662_2087" x1="40" y1="-1.89616e-06" x2="40" y2="80" gradientUnits="userSpaceOnUse">
<stop offset="0.00376832" stop-color="#020618"/>
<stop offset="0.630552" stop-color="#121D46"/>
</linearGradient>
<linearGradient id="paint1_linear_662_2087" x1="10" y1="70" x2="80" y2="5.21541e-07" gradientUnits="userSpaceOnUse">
<stop stop-color="#C800DE"/>
<stop offset="1" stop-color="#53EAFD"/>
</linearGradient>
</defs>
</svg>
