<svg width="80" height="80" viewBox="0 0 80 80" fill="none" xmlns="http://www.w3.org/2000/svg">
<rect x="1" y="1" width="78" height="78" rx="39" fill="url(#paint0_linear_662_2098)"/>
<rect x="1" y="1" width="78" height="78" rx="39" stroke="url(#paint1_linear_662_2098)" stroke-width="2"/>
<g clip-path="url(#clip0_662_2098)">
<path d="M57.297 50.7937C55.0548 50.7937 53.2931 50.9524 51.8517 51.5873C51.3712 51.746 50.7306 51.746 50.7306 52.2222L51.2111 53.1746C51.5314 53.6508 52.0119 54.4445 52.6525 54.9207L54.4142 56.1905L57.7775 57.7778L59.5392 59.2064L60.5002 59.8413L60.0197 58.8889L59.2189 58.0953C58.4181 56.9841 57.4572 56.0318 56.3361 55.2381C55.3752 54.7619 53.4533 53.8095 53.133 52.8572H52.9728L54.8947 52.381L57.7775 51.9048L59.0587 51.5873V51.2699L57.6173 49.6826C56.3361 48.4127 54.7345 47.3016 53.133 46.1905L50.2502 44.9207C49.9298 44.7619 49.2892 44.6032 49.1291 44.2857L48.008 42.2222L45.6056 37.4603L44.3244 34.2857C41.4416 29.5238 38.2384 26.6667 33.4337 23.9683C32.4728 23.3334 31.1916 23.1746 29.9103 22.8572L27.8283 22.6984L26.547 21.746C24.9455 20.7937 20.7814 18.5714 19.6603 21.4286C18.8595 23.1746 20.7814 24.9207 21.422 25.873L22.8634 27.9365L23.3439 29.3651C23.8244 30.6349 24.1447 32.0635 24.7853 33.1746L25.7462 34.7619C26.0666 35.0794 26.3869 35.2381 26.547 35.7143C26.0666 36.3492 26.0666 37.1429 25.9064 37.7778C24.7853 40.9524 25.2658 44.7619 26.7072 47.1429C27.0275 47.7778 28.1486 49.3651 29.59 48.7302C30.8712 48.254 30.5509 46.6667 30.8712 45.2381L31.0314 44.6032L32.3127 46.8254C33.1134 48.254 34.5548 49.6826 35.8361 50.6349C36.4767 51.1111 37.1173 51.9048 37.9181 52.2222L37.2775 51.5873L35.8361 50C34.5548 48.4127 33.5939 46.6667 32.633 44.9207L31.5119 42.2222L31.0314 41.2699C30.5509 41.9048 29.9103 42.381 29.59 43.1746C29.1095 44.2857 29.1095 45.873 28.9494 47.3016H28.7892C27.8283 47.1429 27.508 46.1905 27.1877 45.3968C26.3869 43.4921 26.2267 40.3175 27.0275 38.0953C27.1877 37.4603 27.9884 35.7143 27.6681 35.0794C27.508 34.6032 27.0275 34.2857 26.7072 33.9683L25.5861 32.0635L23.9845 27.3016L22.5431 25.2381C22.0627 24.4445 21.422 23.9683 20.9416 23.0159C20.7814 22.6984 20.6212 22.2222 20.9416 21.9048L21.2619 21.5873C21.5822 21.2699 22.7033 21.5873 23.0236 21.746C23.9845 22.2222 24.9455 22.5397 25.7462 23.1746L27.0275 24.127H27.6681C28.6291 24.2857 29.59 24.127 30.3908 24.4445C31.8322 24.9207 33.2736 25.5556 34.3947 26.3492C38.0783 28.5714 41.1212 31.9048 43.0431 35.7143C43.5236 36.3492 43.5236 36.9841 43.8439 37.6191L45.7658 41.746C46.4064 43.0159 46.8869 44.2857 47.6877 45.3968C48.1681 46.0318 49.9298 46.3492 50.5705 46.6667L52.4923 47.3016L55.3752 49.2064C55.6955 49.5238 57.1369 50.3175 57.297 50.7937Z" fill="#0597BF"/>
<path d="M28.7891 26.8254L27.668 26.9842L28.6289 28.0953L29.2695 29.5239V29.3651C29.75 29.2064 29.9102 28.7302 29.9102 28.0953L29.5898 27.4604L28.7891 26.8254Z" fill="#0597BF"/>
</g>
<defs>
<linearGradient id="paint0_linear_662_2098" x1="40" y1="-1.89616e-06" x2="40" y2="80" gradientUnits="userSpaceOnUse">
<stop offset="0.00376832" stop-color="#020618"/>
<stop offset="0.630552" stop-color="#121D46"/>
</linearGradient>
<linearGradient id="paint1_linear_662_2098" x1="10" y1="70" x2="80" y2="5.21541e-07" gradientUnits="userSpaceOnUse">
<stop stop-color="#C800DE"/>
<stop offset="1" stop-color="#53EAFD"/>
</linearGradient>
<clipPath id="clip0_662_2098">
<rect width="41" height="40" fill="white" transform="translate(19.5 20)"/>
</clipPath>
</defs>
</svg>
