<svg width="80" height="80" viewBox="0 0 80 80" fill="none" xmlns="http://www.w3.org/2000/svg">
<rect x="1" y="1" width="78" height="78" rx="39" fill="url(#paint0_linear_662_2120)"/>
<rect x="1" y="1" width="78" height="78" rx="39" stroke="url(#paint1_linear_662_2120)" stroke-width="2"/>
<g clip-path="url(#clip0_662_2120)">
<path d="M40.0774 35.7031C37.7499 35.7031 35.863 37.6094 35.863 39.9609C35.863 42.3125 37.7499 44.2188 40.0774 44.2188C42.405 44.2188 44.2919 42.3125 44.2919 39.9609C44.2919 37.6094 42.405 35.7031 40.0774 35.7031Z" fill="#58C4DC"/>
<path d="M61.9969 39.9996C61.9969 36.6568 58.933 33.7251 54.0546 31.7957C54.1198 31.3612 54.1788 30.9314 54.2207 30.5095C54.7018 25.7064 53.5564 22.2397 50.9969 20.7464C48.1332 19.0758 44.0883 20.2884 39.9984 23.595C35.9086 20.2884 31.8637 19.0758 29 20.7464C26.4405 22.2397 25.295 25.7064 25.7762 30.5095C25.8181 30.9314 25.8755 31.3628 25.9423 31.7989C25.5356 31.9557 25.1367 32.122 24.7534 32.2961C20.3981 34.2741 18 37.0129 18 39.9996C18 43.3423 21.0639 46.274 25.9423 48.2034C25.8755 48.6379 25.8181 49.0677 25.7762 49.4897C25.295 54.2928 26.4405 57.7594 29 59.2527C29.88 59.7568 30.8771 60.0146 31.8885 59.9994C34.313 59.9994 37.1441 58.71 39.9984 56.4041C42.8513 58.71 45.6839 59.9994 48.1115 59.9994C49.1229 60.0144 50.1199 59.7566 51 59.2527C53.5595 57.7594 54.705 54.2928 54.2238 49.4897C54.1819 49.0677 54.1229 48.6379 54.0577 48.2034C58.9361 46.2771 62 43.3407 62 39.9996M48.0928 22.1174C48.7432 22.1015 49.386 22.2607 49.9554 22.5786C51.7326 23.6154 52.5304 26.4279 52.1424 30.2946C52.116 30.5581 52.0849 30.8247 52.0477 31.093C50.0192 30.4756 47.9421 30.0353 45.8391 29.7769C44.5643 28.0644 43.1467 26.4653 41.6018 24.9974C44.0278 23.1025 46.3048 22.1174 48.0913 22.1174M47.2578 44.2348C46.4728 45.6118 45.618 46.9469 44.6968 48.2348C43.1353 48.3969 41.5666 48.4775 39.9969 48.4764C38.4277 48.4774 36.8595 48.3968 35.2986 48.2348C34.3798 46.9468 33.5276 45.6117 32.7453 44.2348C31.9603 42.8617 31.2469 41.448 30.608 39.9996C31.2469 38.5511 31.9603 37.1375 32.7453 35.7643C33.5264 34.3929 34.376 33.0626 35.2908 31.7785C36.8546 31.6124 38.426 31.5296 39.9984 31.5306C41.5676 31.5297 43.1358 31.6103 44.6968 31.7722C45.6148 33.0583 46.4675 34.3907 47.2516 35.7643C48.0359 37.1378 48.7493 38.5514 49.3889 39.9996C48.7493 41.4477 48.0359 42.8613 47.2516 44.2348M50.4568 42.6662C50.9494 44.0237 51.3538 45.4123 51.6674 46.823C50.3063 47.2518 48.9188 47.5898 47.5139 47.8348C48.0478 47.0212 48.5652 46.1747 49.066 45.2952C49.5612 44.4262 50.0253 43.5493 50.463 42.6725M37.0509 50.4983C38.0164 50.5579 39.002 50.5924 40 50.5924C40.998 50.5924 41.9898 50.5579 42.9568 50.4983C42.04 51.6081 41.0523 52.6561 40 53.6355C38.95 52.6562 37.9649 51.6082 37.0509 50.4983ZM32.4845 47.8316C31.0792 47.5878 29.6911 47.2509 28.3295 46.823C28.6419 45.4145 29.0447 44.0281 29.5355 42.6725C29.967 43.5493 30.4295 44.4262 30.9324 45.2952C31.4353 46.1642 31.9553 47.0207 32.4845 47.8348M29.5355 37.3251C29.0465 35.9745 28.6447 34.5933 28.3326 33.1902C29.6909 32.7619 31.0752 32.4229 32.4768 32.1753C31.946 32.9863 31.426 33.8271 30.9247 34.7039C30.4233 35.5808 29.9654 36.4467 29.5277 37.3251M42.9475 29.4993C41.9821 29.4397 40.9965 29.4052 39.9907 29.4052C38.9932 29.4052 38.0102 29.4365 37.0416 29.4993C37.9555 28.3893 38.9407 27.3413 39.9907 26.362C41.0433 27.3411 42.0311 28.3891 42.9475 29.4993ZM49.0629 34.7039C48.56 33.8234 48.0401 32.9764 47.503 32.1628C48.9117 32.4077 50.3028 32.7462 51.6674 33.1761C51.3543 34.5844 50.9515 35.9708 50.4614 37.3266C50.0299 36.4498 49.5658 35.5729 49.0645 34.7055M27.8607 30.2961C27.468 26.4311 28.2705 23.617 30.0461 22.5801C30.6158 22.2628 31.2584 22.1036 31.9087 22.119C33.6952 22.119 35.9722 23.104 38.3982 24.9989C36.8523 26.468 35.4336 28.068 34.1578 29.7816C32.0554 30.0413 29.9785 30.4799 27.9492 31.093C27.9135 30.8247 27.8809 30.5597 27.8561 30.2961M25.6132 34.2271C25.8523 34.1225 26.096 34.0179 26.3443 33.9133C26.8325 35.995 27.4945 38.031 28.3233 39.9996C27.493 41.972 26.8304 44.0123 26.3427 46.0983C22.3879 44.4591 20.0954 42.1878 20.0954 39.9996C20.0954 37.9259 22.1132 35.8223 25.6132 34.2271ZM30.0461 57.419C28.2705 56.3821 27.468 53.5681 27.8607 49.703C27.8856 49.4395 27.9182 49.1744 27.9539 48.9046C29.9824 49.5218 32.0595 49.9621 34.1624 50.2206C35.4376 51.9338 36.8552 53.5338 38.3997 55.0033C35.0176 57.6433 31.9273 58.5139 30.0508 57.419M52.1408 49.703C52.5289 53.5696 51.7311 56.3821 49.9539 57.419C48.0789 58.517 44.987 57.6433 41.6065 55.0033C43.1505 53.5338 44.5675 51.9338 45.8422 50.2206C47.9452 49.9622 50.0223 49.5219 52.0508 48.9046C52.088 49.1744 52.1191 49.4395 52.1455 49.703M53.6635 46.0952C53.1744 44.0104 52.5113 41.9712 51.6814 39.9996C52.511 38.0269 53.1735 35.9866 53.6619 33.9008C57.609 35.54 59.9077 37.8113 59.9077 39.9996C59.9077 42.1878 57.6152 44.4591 53.6604 46.0983" fill="#58C4DC"/>
</g>
<defs>
<linearGradient id="paint0_linear_662_2120" x1="40" y1="-1.89616e-06" x2="40" y2="80" gradientUnits="userSpaceOnUse">
<stop offset="0.00376832" stop-color="#020618"/>
<stop offset="0.630552" stop-color="#121D46"/>
</linearGradient>
<linearGradient id="paint1_linear_662_2120" x1="10" y1="70" x2="80" y2="5.21541e-07" gradientUnits="userSpaceOnUse">
<stop stop-color="#C800DE"/>
<stop offset="1" stop-color="#53EAFD"/>
</linearGradient>
<clipPath id="clip0_662_2120">
<rect width="44" height="40" fill="white" transform="translate(18 20)"/>
</clipPath>
</defs>
</svg>
