<svg width="22" height="24" viewBox="0 0 22 24" fill="none" xmlns="http://www.w3.org/2000/svg">
<path d="M19.9349 7.30909L18.8335 8.4C20.816 10.3636 20.816 13.4182 18.8335 15.4909L19.9349 16.5818C22.6884 14.0727 22.6884 9.92727 19.9349 7.30909ZM17.622 9.6L16.5206 10.6909C17.0713 11.4545 17.0713 12.4364 16.5206 13.2L17.622 14.2909C18.9437 12.9818 18.9437 11.0182 17.622 9.6ZM13.2165 0H2.20275C0.991239 0 0 0.981818 0 2.18182V21.8182C0 23.0182 0.991239 24 2.20275 24H13.2165C14.428 24 15.4193 23.0182 15.4193 21.8182V2.18182C15.4193 0.981818 14.428 0 13.2165 0ZM13.2165 20.7273H2.20275V3.27273H13.2165V20.7273Z" fill="#FAFAFA"/>
</svg>
