<svg width="98" height="98" viewBox="0 0 98 98" fill="none" xmlns="http://www.w3.org/2000/svg">
<path fill-rule="evenodd" clip-rule="evenodd" d="M49.0002 7.14587C51.4368 7.14596 53.7734 8.11437 55.4963 9.83728C57.2192 11.5603 58.1877 13.8968 58.1877 16.3334C58.1877 17.2052 58.0607 18.0634 57.8225 18.8861L72.2063 36.8666C73.8836 36.1231 75.7132 35.7289 77.5833 35.7289C81.1029 35.7289 84.4783 37.1278 86.967 39.6166C89.4557 42.1053 90.8538 45.4808 90.8538 49.0004C90.8537 50.743 90.5108 52.4685 89.844 54.0785C89.1771 55.6886 88.1994 57.1518 86.967 58.3842C85.7348 59.6164 84.2714 60.5942 82.6614 61.2611C81.0514 61.9279 79.3258 62.2709 77.5833 62.2709C75.8407 62.2709 74.1151 61.9279 72.5051 61.2611C70.8951 60.5942 69.4317 59.6164 68.1995 58.3842C66.9671 57.1518 65.9894 55.6886 65.3225 54.0785C64.9367 53.147 64.6597 52.1767 64.4944 51.1869L53.4924 50.2426C53.4629 50.3196 53.4361 50.3977 53.4045 50.474C52.9429 51.5885 52.2663 52.6014 51.4133 53.4545C50.5603 54.3075 49.5474 54.9849 48.4329 55.4467C47.3182 55.9084 46.1228 56.1459 44.9163 56.1459C43.7099 56.1458 42.5152 55.9083 41.4006 55.4467C40.286 54.9849 39.2733 54.3076 38.4202 53.4545C37.5671 52.6014 36.8897 51.5886 36.428 50.474C35.9664 49.3594 35.7288 48.1647 35.7288 46.9584C35.7288 44.5218 36.6973 42.1853 38.4202 40.4623C39.5308 39.3516 40.8971 38.5565 42.3801 38.1302L45.3508 24.7621C44.2985 24.3064 43.3296 23.6559 42.5032 22.8295C42.3245 22.6508 42.1556 22.4641 41.9934 22.2728L29.4387 28.7308C29.5452 29.3528 29.6038 29.9859 29.6038 30.6254C29.6037 33.6034 28.4205 36.459 26.3147 38.5648C25.6791 39.2004 24.974 39.75 24.219 40.2103L34.7893 68.3978C37.7382 68.4191 40.5619 69.5982 42.6487 71.6849C42.6865 71.7227 42.7218 71.7629 42.759 71.8011L57.3713 60.8422C58.7243 59.8275 60.6436 60.1016 61.6584 61.4545C62.6728 62.8075 62.399 64.7268 61.0461 65.7416L45.6829 77.2631C45.8488 78.0338 45.9377 78.8248 45.9377 79.6254C45.9377 82.6033 44.7543 85.4591 42.6487 87.5648C40.5428 89.6707 37.6864 90.8539 34.7083 90.8539C31.7301 90.8539 28.8737 89.6707 26.7678 87.5648C24.6622 85.459 23.4788 82.6033 23.4788 79.6254C23.4788 76.6473 24.662 73.7908 26.7678 71.6849C27.4036 71.0491 28.1082 70.4979 28.8635 70.0375L18.2942 41.851C15.3453 41.8297 12.5216 40.6516 10.4348 38.5648C8.32912 36.459 7.14584 33.6033 7.14575 30.6254C7.14575 27.6472 8.32894 24.7908 10.4348 22.6849C12.5407 20.5791 15.3971 19.3959 18.3752 19.3959C21.3532 19.396 24.2089 20.5792 26.3147 22.6849C26.482 22.8523 26.6416 23.026 26.7971 23.2025L39.8167 16.5043C39.8156 16.4474 39.8127 16.3904 39.8127 16.3334C39.8127 13.8969 40.7804 11.5602 42.5032 9.83728C44.2262 8.11429 46.5636 7.14587 49.0002 7.14587ZM34.7083 74.5209C33.3545 74.5209 32.0561 75.0588 31.0989 76.016C30.1418 76.9732 29.6038 78.2717 29.6038 79.6254C29.6038 80.9788 30.1419 82.2767 31.0989 83.2338C32.0561 84.191 33.3545 84.7289 34.7083 84.7289C36.062 84.7289 37.3604 84.191 38.3176 83.2338C39.2746 82.2767 39.8127 80.9788 39.8127 79.6254C39.8127 78.2717 39.2747 76.9732 38.3176 76.016C37.3604 75.0588 36.062 74.5209 34.7083 74.5209ZM77.5833 41.8539C75.6881 41.8539 73.8706 42.6075 72.5305 43.9476C71.1905 45.2877 70.4377 47.1053 70.4377 49.0004C70.4378 49.9387 70.6226 50.8679 70.9817 51.7347C71.3408 52.6016 71.867 53.3896 72.5305 54.0531C73.194 54.7166 73.982 55.2428 74.8489 55.6019C75.7158 55.961 76.6449 56.1459 77.5833 56.1459C78.5216 56.1459 79.4507 55.961 80.3176 55.6019C81.1845 55.2428 81.9725 54.7166 82.636 54.0531C83.2995 53.3896 83.8257 52.6016 84.1848 51.7347C84.5439 50.8679 84.7287 49.9387 84.7288 49.0004C84.7288 47.1053 83.976 45.2877 82.636 43.9476C81.2959 42.6075 79.4784 41.8539 77.5833 41.8539ZM44.9163 43.8959C44.1041 43.896 43.3255 44.2191 42.7512 44.7933C42.177 45.3676 41.8538 46.1462 41.8538 46.9584C41.8538 47.3605 41.9333 47.7587 42.0872 48.1302C42.241 48.5017 42.4669 48.8391 42.7512 49.1234C43.0355 49.4077 43.3729 49.6336 43.7444 49.7875C44.1158 49.9413 44.5142 50.0208 44.9163 50.0209C45.3183 50.0209 45.7166 49.9413 46.0881 49.7875C46.4597 49.6336 46.7979 49.4078 47.0823 49.1234C47.3665 48.8391 47.5925 48.5017 47.7463 48.1302C47.9002 47.7588 47.9788 47.3605 47.9788 46.9584C47.9788 46.1463 47.6564 45.3676 47.0823 44.7933C46.5079 44.219 45.7285 43.8959 44.9163 43.8959ZM54.0667 23.9955C53.2867 24.5113 52.4334 24.9028 51.5374 25.1605L48.5657 38.5287C49.6182 38.9843 50.5868 39.6357 51.4133 40.4623C52.445 41.4941 53.2023 42.7471 53.6467 44.1088L64.9065 45.0756C65.4128 43.4403 66.233 41.9098 67.3303 40.5746L54.0667 23.9955ZM18.3752 25.5209C17.0215 25.5209 15.7231 26.0588 14.7659 27.016C13.8087 27.9732 13.2708 29.2717 13.2708 30.6254C13.2708 31.9789 13.8088 33.2766 14.7659 34.2338C15.7231 35.191 17.0215 35.7289 18.3752 35.7289C19.7288 35.7288 21.0265 35.1909 21.9836 34.2338C22.9408 33.2766 23.4787 31.979 23.4788 30.6254C23.4788 29.2717 22.9409 27.9732 21.9836 27.016C21.0265 26.059 19.7288 25.521 18.3752 25.5209ZM49.0002 13.2709C48.188 13.2709 47.4086 13.594 46.8342 14.1683C46.2601 14.7426 45.9377 15.5213 45.9377 16.3334C45.9377 17.1454 46.2601 17.9241 46.8342 18.4984C47.4086 19.0727 48.188 19.3959 49.0002 19.3959C49.8124 19.3958 50.591 19.0727 51.1653 18.4984C51.7395 17.9241 52.0627 17.1455 52.0627 16.3334C52.0627 15.5212 51.7395 14.7426 51.1653 14.1683C50.591 13.5941 49.8124 13.271 49.0002 13.2709Z" fill="url(#paint0_linear_4848_1225)"/>
<defs>
<linearGradient id="paint0_linear_4848_1225" x1="60.1039" y1="84.0206" x2="37.8956" y2="7.14588" gradientUnits="userSpaceOnUse">
<stop stop-color="#C800DE"/>
<stop offset="1" stop-color="#53EAFD"/>
</linearGradient>
</defs>
</svg>
