<svg width="98" height="98" viewBox="0 0 98 98" fill="none" xmlns="http://www.w3.org/2000/svg">
<path d="M51.5238 70.7692C51.5238 72.1467 51.6857 73.4836 51.8881 74.8205H15.0952C12.9482 74.8205 10.8892 73.9669 9.37104 72.4473C7.85289 70.9278 7 68.8669 7 66.7179V18.1026C7 13.6056 10.6024 10 15.0952 10H39.381L47.4762 18.1026H79.8571C82.0041 18.1026 84.0632 18.9562 85.5813 20.4757C87.0995 21.9953 87.9524 24.0562 87.9524 26.2051V49.7431C85.4833 48.3251 82.7714 47.3528 79.8571 46.8262V26.2051H15.0952V66.7179H51.8881C51.6857 68.0549 51.5238 69.3918 51.5238 70.7692ZM92 62.6667L79.8571 52.5385V58.6154H63.6667V66.7179H79.8571V72.7949L92 62.6667ZM71.7619 68.7436L59.619 78.8718L71.7619 89V82.9231H87.9524V74.8205H71.7619V68.7436Z" fill="url(#paint0_linear_5081_860)"/>
<defs>
<linearGradient id="paint0_linear_5081_860" x1="60.7755" y1="82.551" x2="41.0893" y2="9.23082" gradientUnits="userSpaceOnUse">
<stop stop-color="#C800DE"/>
<stop offset="1" stop-color="#53EAFD"/>
</linearGradient>
</defs>
</svg>
