<svg width="98" height="97" viewBox="0 0 98 97" fill="none" xmlns="http://www.w3.org/2000/svg">
<path fill-rule="evenodd" clip-rule="evenodd" d="M68.4402 45.2625C71.1504 45.3297 73.7355 46.4357 75.6572 48.3574C77.6408 50.3411 78.7551 53.0316 78.7551 55.8369V59.3629H84.044L84.2255 59.3675C86.0884 59.462 87.57 61.0025 87.57 62.8889V84.0443C87.5699 85.9915 85.9912 87.57 84.044 87.57H52.3108C50.3637 87.5699 48.7853 85.9915 48.7852 84.0443V62.8889C48.7852 60.9416 50.3636 59.3629 52.3108 59.3629H57.5997V55.8369C57.5997 53.0315 58.7143 50.3411 60.698 48.3574C62.6817 46.3737 65.3721 45.2592 68.1774 45.2592L68.4402 45.2625ZM55.8369 80.5183H80.5183V66.4146H55.8369V80.5183ZM68.1774 52.3112C67.2423 52.3112 66.3456 52.6826 65.6844 53.3438C65.0232 54.005 64.6518 54.9018 64.6517 55.8369V59.3629H71.7034V55.8369C71.7034 54.9018 71.3319 54.005 70.6708 53.3438C70.0095 52.6826 69.1125 52.3112 68.1774 52.3112Z" fill="url(#paint0_linear_4853_54)"/>
<path d="M17.2335 59.3675C19.0964 59.462 20.5777 61.0025 20.5777 62.8889V73.4666C20.5778 74.4016 20.9495 75.2985 21.6107 75.9596C22.2719 76.6208 23.1687 76.9923 24.1037 76.9923H34.6814L34.8629 76.9969C36.7259 77.0914 38.2075 78.6319 38.2075 80.5183C38.2074 82.4656 36.6287 84.0443 34.6814 84.0443H24.1037C21.2984 84.0443 18.608 82.9297 16.6243 80.946C14.6406 78.9624 13.5261 76.2719 13.526 73.4666V62.8889C13.526 60.9416 15.1047 59.3629 17.052 59.3629L17.2335 59.3675Z" fill="url(#paint1_linear_4853_54)"/>
<path fill-rule="evenodd" clip-rule="evenodd" d="M29.3926 10C34.1485 10 38.6243 10.8495 42.0432 12.3687C43.7482 13.1264 45.3465 14.12 46.5662 15.4016C47.7997 16.6977 48.7792 18.4469 48.7848 20.5599C48.7849 20.5659 48.7852 20.572 48.7852 20.578V41.7335C48.7851 43.8545 47.8032 45.6098 46.5662 46.9096C45.3465 48.1912 43.7482 49.1848 42.0432 49.9424C38.6243 51.4616 34.1485 52.3112 29.3926 52.3112C24.6367 52.3112 20.1609 51.4616 16.742 49.9424C15.037 49.1848 13.4387 48.1912 12.219 46.9096C10.982 45.6098 10.0001 43.8545 10 41.7335V20.578C10 20.572 10.0003 20.5659 10.0003 20.5599L10.003 20.38C10.0617 18.3475 11.0206 16.6608 12.219 15.4016C13.4387 14.12 15.037 13.1264 16.742 12.3687C20.1609 10.8495 24.6367 10 29.3926 10ZM41.7331 39.4993C38.3559 40.9339 34.0061 41.7331 29.3926 41.7331C24.7791 41.7331 20.4293 40.9339 17.052 39.4993V41.6816C17.0753 41.7342 17.1442 41.856 17.327 42.0482C17.7133 42.454 18.4389 42.98 19.6052 43.4983C21.9291 44.5309 25.3867 45.2592 29.3926 45.2592C33.3984 45.2592 36.8561 44.5309 39.1799 43.4983C40.3462 42.98 41.0719 42.454 41.4581 42.0482C41.641 41.856 41.7099 41.7342 41.7331 41.6816V39.4993ZM41.7331 28.9215C38.3559 30.3561 34.0061 31.1554 29.3926 31.1554C24.7791 31.1554 20.4293 30.3561 17.052 28.9215V31.1032C17.075 31.1555 17.1435 31.2775 17.327 31.4704C17.7133 31.8763 18.4389 32.402 19.6052 32.9202C21.9291 33.9529 25.3867 34.6814 29.3926 34.6814C33.3985 34.6814 36.8561 33.9529 39.1799 32.9202C40.3462 32.402 41.0719 31.8763 41.4581 31.4704C41.6424 31.2768 41.7104 31.1545 41.7331 31.1025V28.9215ZM29.3926 17.052C25.3867 17.052 21.9291 17.7802 19.6052 18.8129C18.4389 19.3312 17.7133 19.8572 17.327 20.263C17.1893 20.4078 17.1158 20.5124 17.0781 20.5777C17.1158 20.643 17.1891 20.7478 17.327 20.8927C17.7133 21.2986 18.4389 21.8243 19.6052 22.3425C21.9291 23.3752 25.3867 24.1037 29.3926 24.1037C33.3985 24.1037 36.8561 23.3752 39.1799 22.3425C40.3462 21.8243 41.0719 21.2986 41.4581 20.8927C41.5959 20.7479 41.669 20.643 41.7067 20.5777C41.669 20.5124 41.5958 20.4077 41.4581 20.263C41.0719 19.8572 40.3463 19.3312 39.1799 18.8129C36.8561 17.7802 33.3985 17.052 29.3926 17.052Z" fill="url(#paint2_linear_4853_54)"/>
<path d="M73.4663 13.526C76.2717 13.526 78.9623 14.6406 80.946 16.6243C82.9296 18.608 84.044 21.2984 84.044 24.1037V34.6814C84.0439 36.6287 82.4655 38.2074 80.5183 38.2075C78.571 38.2075 76.9923 36.6287 76.9923 34.6814V24.1037C76.9923 23.1687 76.6208 22.2719 75.9596 21.6107C75.3397 20.9908 74.5126 20.6256 73.6411 20.5823L73.4663 20.578H62.8886C60.9413 20.578 59.3629 18.9992 59.3629 17.052C59.3629 15.1048 60.9413 13.5261 62.8886 13.526H73.4663Z" fill="url(#paint3_linear_4853_54)"/>
<defs>
<linearGradient id="paint0_linear_4853_54" x1="59.0749" y1="81.2378" x2="38.4951" y2="10" gradientUnits="userSpaceOnUse">
<stop stop-color="#C800DE"/>
<stop offset="1" stop-color="#53EAFD"/>
</linearGradient>
<linearGradient id="paint1_linear_4853_54" x1="59.0749" y1="81.2378" x2="38.4951" y2="10" gradientUnits="userSpaceOnUse">
<stop stop-color="#C800DE"/>
<stop offset="1" stop-color="#53EAFD"/>
</linearGradient>
<linearGradient id="paint2_linear_4853_54" x1="59.0749" y1="81.2378" x2="38.4951" y2="10" gradientUnits="userSpaceOnUse">
<stop stop-color="#C800DE"/>
<stop offset="1" stop-color="#53EAFD"/>
</linearGradient>
<linearGradient id="paint3_linear_4853_54" x1="59.0749" y1="81.2378" x2="38.4951" y2="10" gradientUnits="userSpaceOnUse">
<stop stop-color="#C800DE"/>
<stop offset="1" stop-color="#53EAFD"/>
</linearGradient>
</defs>
</svg>
